<svg style="position: absolute; width: 0; height: 0; overflow: hidden;" aria-hidden="true" version="1.1" xmlns="http://www.w3.org/2000/svg" xmlns:xlink="http://www.w3.org/1999/xlink">
    <style>
        .default-palette, .palette0 {color: currentColor;
            --color0: #12c2ab;
            --color1: #000;
            --color2: #272727;
            --color3: #069696;
            --color4: #2d264b;
        }
    </style>
    <defs>
        <symbol id="plus" viewBox="0 0 32 32">
            <title />
            <g id="plus" stroke-width="2" stroke="currentColor" stroke-linecap="round" stroke-linejoin="round" fill="none">
                <line class="cls-1" x1="16" x2="16" y1="7" y2="25" />
                <line class="cls-1" x1="7" x2="25" y1="16" y2="16" />
            </g>
        </symbol>
        <symbol id="minus" viewBox="0 0 32 32">
            <title />
            <line stroke-width="2" stroke="currentColor" stroke-linecap="round" fill="none" class="cls-1" x1="7" x2="25" y1="16" y2="16" />
        </symbol>
        <symbol id="search" viewBox="0 0 632.399 632.399" fill="currentColor" version="1.1" xmlns:xlink="http://www.w3.org/1999/xlink">
            <path d="M255.108 0C119.863 0 10.204 109.66 10.204 244.904c0 135.245 109.659 244.905 244.904 244.905 52.006 0 100.238-16.223 139.883-43.854l185.205 185.176c1.671 1.672 4.379 1.672 5.964 0.115l34.892-34.891c1.613-1.613 1.47-4.379-0.115-5.965L438.151 407.605c38.493-43.246 61.86-100.237 61.86-162.702C500.012 109.66 390.353 0 255.108 0zM255.108 460.996c-119.34 0-216.092-96.752-216.092-216.092S135.767 28.813 255.108 28.813s216.091 96.751 216.091 216.091-96.751 216.092-216.091 216.092z" />
            <g />
            <g />
            <g />
            <g />
            <g />
            <g />
            <g />
            <g />
            <g />
            <g />
            <g />
            <g />
            <g />
            <g />
            <g />
        </symbol>
        <symbol id="Location" viewBox="0 0 12 15" fill="var(--color4, #2d264b)" clip-rule="evenodd" fill-rule="evenodd">
            <path d="M5.8333 4c-1.3807 0-2.5 1.1193-2.5 2.5S4.4526 9 5.8333 9s2.5-1.1193 2.5-2.5S7.2141 4 5.8333 4zM4.3333 6.5c0-0.8284 0.6716-1.5 1.5-1.5s1.5 0.6716 1.5 1.5S6.6618 8 5.8333 8s-1.5-0.6716-1.5-1.5z" />
            <path d="M5.8333 0C2.5778 0 0 2.8285 0 6.2391 0 7.333 0.5434 8.621 1.2271 9.8297c0.6948 1.2283 1.5815 2.4544 2.3589 3.4458l0.0259 0.0331c0.3794 0.484 0.7027 0.8962 1.0162 1.181 0.342 0.3106 0.7191 0.514 1.2051 0.514s0.8632-0.2034 1.2052-0.514c0.3135-0.2848 0.6368-0.697 1.0162-1.181l0.0259-0.0331c0.7775-0.9914 1.6642-2.2175 2.359-3.4458 0.6837-1.2087 1.2271-2.4968 1.2271-3.5906C11.6667 2.8285 9.0889 0 5.8333 0zM1 6.2391C1 3.3105 3.1979 1 5.8333 1s4.8334 2.3105 4.8334 5.2391c0 0.8177-0.4264 1.9118-1.0975 3.0983-0.66 1.1668-1.513 2.3488-2.2755 3.321-0.4127 0.5262-0.6844 0.87-0.9277 1.091-0.2219 0.2015-0.37 0.2542-0.5328 0.2542-0.1627 0-0.3109-0.0527-0.5328-0.2542-0.2434-0.221-0.515-0.5648-0.9277-1.091-0.7624-0.9722-1.6154-2.1542-2.2754-3.321C1.4264 8.1509 1 7.0568 1 6.2391z" />
        </symbol>
        <symbol id="Time" viewBox="0 0 15 15" fill="var(--color4, #2d264b)">
            <path d="M3.1457 0.8905c0.2156-0.1726 0.2506-0.4872 0.0781-0.7028C3.0513-0.028 2.7366-0.0629 2.521 0.1096L0.8543 1.4429C0.6387 1.6154 0.6037 1.9301 0.7762 2.1457S1.2634 2.3963 1.479 2.2238z" />
            <path d="M11.8123 0.1096c-0.2156-0.1725-0.5302-0.1376-0.7027 0.0781s-0.1376 0.5302 0.0781 0.7028l1.6666 1.3333c0.2156 0.1725 0.5303 0.1375 0.7028-0.0781s0.1375-0.5303-0.0781-0.7028z" />
            <path d="M7.6667 5c0-0.2761-0.2239-0.5-0.5-0.5s-0.5 0.2239-0.5 0.5l0 2.3334c0 0.2761-0.2239 0.5-0.5 0.5l-1 0c-0.2762 0-0.5 0.2238-0.5 0.4999s0.2238 0.4999 0.5 0.4999l1-1e-4c0.8284-1e-4 1.5-0.6716 1.5-1.5001z" />
            <path clip-rule="evenodd" d="M7.1667 0.5C3.2086 0.5 0 3.7086 0 7.6667c0 3.958 3.2086 7.1667 7.1667 7.1667s7.1666-3.2087 7.1666-7.1667c0-3.9581-3.2086-7.1667-7.1666-7.1667zM1 7.6667C1 4.2609 3.7609 1.5 7.1667 1.5c3.4057 0 6.1666 2.7609 6.1666 6.1667 0 3.4057-2.7609 6.1667-6.1666 6.1667C3.7609 13.8334 1 11.0724 1 7.6667z" fill-rule="evenodd" />
        </symbol>
        <symbol id="Call" viewBox="0 0 13 13" fill="none">
            <path clip-rule="evenodd" d="M3.9079 0.4834c-0.7014-0.6445-1.7795-0.6445-2.4809 0-0.0287 0.0264-0.0594 0.057-0.0992 0.0969L0.7295 1.1786c-0.6021 0.6021-0.8549 1.47-0.6702 2.3012 1.048 4.7159 4.7311 8.3989 9.447 9.4469 0.8311 0.1847 1.6991-0.068 2.3012-0.6701l0.5982-0.5983c0.0399-0.0398 0.0706-0.0705 0.097-0.0992 0.6445-0.7014 0.6445-1.7795 0-2.4809-0.0264-0.0288-0.0571-0.0594-0.097-0.0993l-0.9795-0.9795c-0.68-0.6801-1.707-0.8746-2.5887-0.4903-0.5047 0.22-1.0927 0.1087-1.482-0.2806L5.7576 5.6306c-0.3893-0.3894-0.5007-0.9773-0.2807-1.482 0.3843-0.8817 0.1898-1.9087-0.4902-2.5888L4.0071 0.5803C3.9673 0.5404 3.9366 0.5098 3.9079 0.4834zM2.1036 1.2197c0.3188-0.2929 0.8089-0.2929 1.1277 0 0.011 0.0101 0.0254 0.0244 0.0761 0.0751l0.9722 0.9721C4.6689 2.6563 4.7802 3.2442 4.5602 3.749 4.1759 4.6306 4.3704 5.6576 5.0505 6.3377l1.5979 1.5979c0.68 0.68 1.707 0.8745 2.5887 0.4902 0.5047-0.22 1.0927-0.1086 1.482 0.2807l0.9722 0.9721c0.0507 0.0507 0.0649 0.0652 0.075 0.0762 0.293 0.3188 0.293 0.8088 0 1.1277-0.0101 0.011-0.0243 0.0254-0.075 0.0761l-0.5909 0.5909c-0.3604 0.3603-0.8798 0.5116-1.3772 0.401-4.3369-0.9637-7.7239-4.3507-8.6877-8.6876C0.925 2.7654 1.0763 2.246 1.4366 1.8857l0.5909-0.5909c0.0507-0.0507 0.0651-0.065 0.0761-0.0751z" fill-rule="evenodd" />
        </symbol>
        <symbol id="Vegan" viewBox="0 0 33 33" fill="none">
            <path  stroke-linecap="round" stroke-linejoin="round" d="M2.3966 10.9422 2.1427 10.5129c-0.1782-0.3004-0.242-0.6532-0.18-0.9955s0.2457-0.6521 0.5185-0.8738L2.862 8.3252C3.1418 8.1094 3.3282 7.798 3.3838 7.453l0.0846-0.4847c0.0596-0.3312 0.2313-0.633 0.4872-0.8566 0.2559-0.2236 0.5811-0.3558 0.9231-0.3755l0.5077 0C5.7439 5.746 6.0917 5.6223 6.3597 5.39l0.3807-0.3184c0.2712-0.2219 0.613-0.3435 0.966-0.3435s0.6949 0.1216 0.9661 0.3435M21.3657 19.4434c-0.2791 0.5317-0.7518 0.9407-1.324 1.146-0.5723 0.2052-1.2022 0.1917-1.7647-0.0382l-0.8321-0.3046c-0.5984-0.2036-1.2491-0.2036-1.8475 0l-0.8462 0.3046c-0.5694 0.2167-1.1989 0.227-1.7753 0.029-0.5764-0.1979-1.0621-0.5912-1.3698-1.109M8.6726 5.3484 8.8278 4.476c0.1097-0.6112 0.4361-1.1646 0.9213-1.5624 0.4852-0.3978 1.098-0.6141 1.7301-0.6112h0.9026c0.6303-25e-4 1.2396-0.2234 1.7206-0.6233l0.6911-0.5676C15.2792 0.7164 15.8903 0.5 16.5212 0.5c0.6308 0 1.2419 0.2164 1.7276 0.6115l0.6911 0.5676c0.4798 0.402 1.0898 0.6231 1.7206 0.6233h0.9026c0.6307 25e-4 1.2406 0.2211 1.7247 0.6179 0.484 0.3969 0.8118 0.9469 0.9268 1.5557l0.1551 0.8724c0.1008 0.6139 0.4269 1.1702 0.9167 1.5644l0.677 0.5678c0.338 0.2717 0.6024 0.621 0.7697 1.0172s0.2324 0.8267 0.1893 1.2534M6.134 9.8483c-0.0622-0.4397-93e-4-0.8879 0.1535-1.3021s0.4303-0.7807 0.7773-1.0655M8.1226 21.7417c0 0 4.7387 1e-4 5.0208 10.7583M15.5269 26.2416c-0.5642-4.7491-3.1451-5.9534-3.1451-5.9534M20.8156 17.3804l-0.0987 0.526c-0.0626 0.363 61e-4 0.7364 0.1941 1.055s0.4835 0.5623 0.8355 0.6896l0.4936 0.1663c0.3512 0.1344 0.6482 0.3774 0.8462 0.6923l0.2539 0.457c0.1928 0.315 0.4897 0.5555 0.8413 0.6815 0.3517 0.126 0.7367 0.1298 1.0908 0.0108l0.5077-0.1802c0.3509-0.1248 0.7352-0.1248 1.086 0l0.5077 0.1802c0.3519 0.1208 0.7356 0.1175 1.0855-88e-4s0.6442-0.3677 0.8326-0.6835l0.2679-0.457c0.1886-0.3174 0.4823-0.5618 0.8322-0.6923l0.5077-0.1663c0.3519-0.1273 0.6474-0.371 0.8355-0.6896 0.188-0.3186 0.2566-0.692 0.194-1.055l-0.0987-0.526c-0.07-0.3627 4e-4-0.7379 0.1974-1.0523l0.2539-0.457c0.1903-0.3174 0.2593-0.6909 0.1947-1.0537-0.0646-0.3627-0.2586-0.691-0.5473-0.9262l-0.409-0.3323c-0.2857-0.2365-0.4758-0.5654-0.5359-0.9275l-0.0987-0.5125c-0.0657-0.362-0.2581-0.6899-0.5439-0.9276-0.2858-0.2376-0.6471-0.3698-1.0216-0.3738h-0.5359c-0.3759 41e-4-0.741-0.1236-1.0296-0.36l-0.409-0.3462c-0.2867-0.2354-0.6487-0.3644-1.0225-0.3644s-0.7357 0.129-1.0225 0.3644l-0.409 0.3462c-0.2898 0.2343-0.6541 0.3617-1.0295 0.36h-0.536c-0.3752 13e-4-0.738 0.1324-1.0244 0.3705-0.2863 0.238-0.4779 0.5677-0.541 0.9309l-0.0987 0.5125c-0.0602 0.3621-0.2503 0.691-0.536 0.9275l-0.409 0.3323M30.6034 10.9422l0.2539-0.4293c0.1782-0.3004 0.242-0.6532 0.18-0.9955s-0.2457-0.6521-0.5185-0.8738L30.138 8.3252c-0.2675-0.2261-0.4511-0.5327-0.5218-0.8722l-0.0846-0.4847C29.4743 6.636 29.3033 6.333 29.0469 6.109s-0.5829-0.3555-0.9257-0.3728l-0.5077 0C27.261 5.7425 26.9188 5.619 26.6544 5.39l-0.3948-0.3184c-0.2592-0.2297-0.5959-0.357-0.945-0.357s-0.6857 0.1273-0.9449 0.357M24.8774 21.7417c0 0-4.7387 1e-4-5.0067 10.7583M17.4731 26.2416c0.5642-4.7491 3.1451-5.9534 3.1451-5.9534M7.7136 10.1113l0.409 0.3462c0.2849 0.2333 0.6444 0.3608 1.0154 0.36h0.536c0.3761 34e-4 0.7394 0.1351 1.0276 0.3725 0.2881 0.2374 0.4833 0.5658 0.5519 0.9289l0.0847 0.5125c0.0661 0.3632 0.2609 0.6917 0.55 0.9275l0.409 0.3323c0.2863 0.2368 0.4785 0.5649 0.543 0.9269 0.0644 0.362-3e-3 0.7349-0.1904 1.053l-0.268 0.457c-0.186 0.3184-0.251 0.6913-0.1833 1.0523l0.0846 0.526c0.0654 0.3633-2e-3 0.7378-0.1904 1.057s-0.4856 0.5626-0.8392 0.6876l-0.4936 0.1663c-0.3499 0.1305-0.6436 0.3749-0.8321 0.6923l-0.268 0.457c-0.1908 0.3169-0.4877 0.559-0.8399 0.6852s-0.7383 0.1288-1.0922 71e-4l-0.4936-0.1802c-0.3557-0.1246-0.7444-0.1246-1.1001 0l-0.4936 0.1802c-0.3539 0.1217-0.7399 0.1191-1.0922-71e-4s-0.6491-0.3683-0.84-0.6852l-0.2679-0.457c-0.1886-0.3174-0.4823-0.5618-0.8322-0.6923L2.1004 19.651c-0.3509-0.1275-0.645-0.372-0.8307-0.691-0.1857-0.3189-0.2511-0.692-0.1848-1.0536l0.0846-0.526c0.0677-0.361 27e-4-0.7339-0.1833-1.0523l-0.268-0.457c-0.1903-0.3174-0.2593-0.6909-0.1947-1.0537 0.0646-0.3627 0.2586-0.691 0.5473-0.9262l0.409-0.3323c0.2845-0.2396 0.4783-0.5663 0.55-0.9275l0.0846-0.5125c0.0687-0.3631 0.2639-0.6915 0.552-0.9289s0.6514-0.3691 1.0276-0.3725h0.536c0.371 8e-4 0.7305-0.1267 1.0154-0.36l0.409-0.3462c0.2901-0.234 0.654-0.362 1.0295-0.362s0.7394 0.128 1.0296 0.362z" />
        </symbol>
        <symbol id="bascet" viewBox="0 0 17 17" fill="none">
            <path  stroke-linecap="round" stroke-linejoin="round" d="M4.2063 10.1337c0.0834 0.3443 0.2899 0.6502 0.5842 0.8651 0.2942 0.215 0.6579 0.3254 1.0284 0.3125h8.3147c0.3701 0.0128 0.7333-0.0978 1.0271-0.3127 0.2938-0.215 0.4998-0.5208 0.5826-0.8649l0.725-4.7464c0.0491-0.2415 0.0411-0.4903-0.0232-0.7285s-0.1833-0.4598-0.3485-0.6487c-0.1652-0.1889-0.3723-0.3405-0.6065-0.4437s-0.4895-0.1554-0.7474-0.153l-11.6413 0M4.2063 10.1337 3.1014 3.4136M4.2063 10.1337c0 0 0.3423 3.5771 4.0893 3.7263h6.711M3.1014 3.4136 2.7765 1.4426c-0.0514-0.2643-0.198-0.5031-0.4146-0.6753C2.1453 0.5952 1.8724 0.5007 1.5904 0.5H0.5M7.6054 15.1786C7.6054 15.9084 6.9847 16.5 6.2191 16.5s-1.3863-0.5916-1.3863-1.3214c0-0.7297 0.6206-1.3213 1.3863-1.3213s1.3862 0.5916 1.3862 1.3213zM16.3928 15.1786c0 0.7298-0.6206 1.3214-1.3862 1.3214-0.7657 0-1.3863-0.5916-1.3863-1.3214 0-0.7297 0.6206-1.3213 1.3863-1.3213 0.7656 0 1.3862 0.5916 1.3862 1.3213z" />
        </symbol>
        <symbol id="poosh" viewBox="0 0 15 21" fill="none">
            <path  stroke-linecap="round" stroke-linejoin="round" d="M8.279 19.5602c-0.0309 0.259-0.1559 0.4978-0.3513 0.6709C7.7324 20.4043 7.4801 20.5 7.2188 20.5s-0.5135-0.0957-0.7089-0.2689c-0.1954-0.1731-0.3203-0.4119-0.3513-0.6709M0.7452 13.1918c0.4653-1.1758 0.6392-2.4463 0.5068-3.7036-0.057-0.5163-0.0449-1.0379 0.036-1.551 0.2467-1.4665 1.0061-2.7982 2.1432-3.7586S6.0097 2.691 7.4993 2.691s2.9309 0.5271 4.068 1.4876c1.1372 0.9604 1.8965 2.2921 2.1432 3.7586 0.0809 0.5131 0.093 1.0347 0.036 1.551-0.1293 1.2572 0.0445 2.5271 0.5069 3.7036 0.1886 0.4446 0.2709 0.927 0.2404 1.4088-0.0306 0.4819-0.1732 0.95-0.4165 1.3672-0.2433 0.4173-0.5807 0.7723-0.9854 1.0367-0.4046 0.2644-0.8654 0.4311-1.3459 0.4868-2.8213 0.3154-5.6691 0.3154-8.4905 0-0.4804-0.0559-0.9412-0.2226-1.3459-0.487-0.4046-0.2644-0.7421-0.6193-0.9857-1.0364s-0.3865-0.8852-0.4175-1.367 0.0507-0.9642 0.2388-1.4091zM8.6209 1.6168c0 0.6168-0.5008 1.1168-1.1187 1.1168s-1.1187-0.5-1.1187-1.1168S6.8844 0.5 7.5023 0.5 8.6209 1 8.6209 1.6168z" />
        </symbol>
        <symbol id="home" viewBox="0 0 22 21" fill="none">
            <path  d="M18.72 10.23c-0.2067 0-0.3833 0.0767-0.53 0.23-0.14 0.1533-0.21 0.3333-0.21 0.54v7.22c0 0.2067-0.0767 0.3833-0.23 0.53s-0.3333 0.22-0.54 0.22h-2.76v-4.3c0-0.6733-0.1667-1.2933-0.5-1.86-0.34-0.5667-0.7933-1.02-1.36-1.36-0.5667-0.3333-1.1867-0.5-1.86-0.5-0.6867 0-1.3133 0.1667-1.88 0.5-0.5733 0.34-1.0267 0.7933-1.36 1.36s-0.5 1.1867-0.5 1.86v4.3H4.2c-0.1933 0-0.3633-0.0767-0.51-0.23-0.1533-0.1533-0.23-0.3333-0.23-0.54V11c0-0.2067-0.0733-0.3867-0.22-0.54-0.14-0.1533-0.3167-0.23-0.53-0.23-0.2067 0-0.38 0.0767-0.52 0.23-0.1467 0.1533-0.22 0.3333-0.22 0.54v7.2c0 0.4133 0.1 0.7933 0.3 1.14 0.2 0.34 0.4733 0.61 0.82 0.81 0.34 0.2 0.71 0.3 1.11 0.3h13.01c0.4 0 0.7733-0.1 1.12-0.3 0.34-0.2 0.6133-0.47 0.82-0.81 0.2133-0.3467 0.32-0.72 0.32-1.12V11c0-0.2067-0.0733-0.3867-0.22-0.54s-0.3233-0.23-0.53-0.23zM8.5 14.67c0-0.6067 0.22-1.13 0.66-1.57s0.9633-0.66 1.57-0.66 1.13 0.22 1.57 0.66 0.66 0.9633 0.66 1.57v4.3H8.5zM21.27 9.68c0.1267-0.1467 0.19-0.3233 0.19-0.53s-0.0733-0.3833-0.22-0.53l-8.06-7.63c-0.4467-0.4333-0.9667-0.7267-1.56-0.88-0.5933-0.1467-1.1867-0.1467-1.78 0-0.5933 0.1533-1.1133 0.4467-1.56 0.88L0.24 8.62C0.08 8.7667 0 8.9433 0 9.15S0.0733 9.54 0.22 9.7c0.1267 0.1267 0.3033 0.1967 0.53 0.21 0.22 67e-4 0.3933-0.0533 0.52-0.18l8.07-7.66c0.4-0.3867 0.8667-0.58 1.4-0.58 0.54 0 1.01 0.1933 1.41 0.58l8.06 7.63c0.1467 0.1467 0.3233 0.22 0.53 0.22s0.3833-0.08 0.53-0.24z" />
            <path  fill-opacity="0.2" d="M18.72 10.23c-0.2067 0-0.3833 0.0767-0.53 0.23-0.14 0.1533-0.21 0.3333-0.21 0.54v7.22c0 0.2067-0.0767 0.3833-0.23 0.53s-0.3333 0.22-0.54 0.22h-2.76v-4.3c0-0.6733-0.1667-1.2933-0.5-1.86-0.34-0.5667-0.7933-1.02-1.36-1.36-0.5667-0.3333-1.1867-0.5-1.86-0.5-0.6867 0-1.3133 0.1667-1.88 0.5-0.5733 0.34-1.0267 0.7933-1.36 1.36s-0.5 1.1867-0.5 1.86v4.3H4.2c-0.1933 0-0.3633-0.0767-0.51-0.23-0.1533-0.1533-0.23-0.3333-0.23-0.54V11c0-0.2067-0.0733-0.3867-0.22-0.54-0.14-0.1533-0.3167-0.23-0.53-0.23-0.2067 0-0.38 0.0767-0.52 0.23-0.1467 0.1533-0.22 0.3333-0.22 0.54v7.2c0 0.4133 0.1 0.7933 0.3 1.14 0.2 0.34 0.4733 0.61 0.82 0.81 0.34 0.2 0.71 0.3 1.11 0.3h13.01c0.4 0 0.7733-0.1 1.12-0.3 0.34-0.2 0.6133-0.47 0.82-0.81 0.2133-0.3467 0.32-0.72 0.32-1.12V11c0-0.2067-0.0733-0.3867-0.22-0.54s-0.3233-0.23-0.53-0.23zM8.5 14.67c0-0.6067 0.22-1.13 0.66-1.57s0.9633-0.66 1.57-0.66 1.13 0.22 1.57 0.66 0.66 0.9633 0.66 1.57v4.3H8.5zM21.27 9.68c0.1267-0.1467 0.19-0.3233 0.19-0.53s-0.0733-0.3833-0.22-0.53l-8.06-7.63c-0.4467-0.4333-0.9667-0.7267-1.56-0.88-0.5933-0.1467-1.1867-0.1467-1.78 0-0.5933 0.1533-1.1133 0.4467-1.56 0.88L0.24 8.62C0.08 8.7667 0 8.9433 0 9.15S0.0733 9.54 0.22 9.7c0.1267 0.1267 0.3033 0.1967 0.53 0.21 0.22 67e-4 0.3933-0.0533 0.52-0.18l8.07-7.66c0.4-0.3867 0.8667-0.58 1.4-0.58 0.54 0 1.01 0.1933 1.41 0.58l8.06 7.63c0.1467 0.1467 0.3233 0.22 0.53 0.22s0.3833-0.08 0.53-0.24z" />
        </symbol>
        <symbol id="Snacks" viewBox="0 0 25 33" fill="none">
            <path stroke-linecap="round" stroke-linejoin="round" d="M5.5432 17.8577c0.9976 0.3682 2.0252 0.6204 3.0672 0.753 2.1999 0.2741 4.4159 0.3387 6.6252 0.1929 2.8809 0.085 5.7245-0.759 8.2048-2.4349 0.3001 0.2365 0.5478 0.5494 0.7235 0.9143 0.1757 0.3648 0.2745 0.7714 0.2887 1.1874 0.2058 2.8045-0.2607 5.6202-1.3496 8.1448M15.7417 32.3426c-0.4447 0-0.9048 0.1224-1.3649 0.1574-0.8128 0-1.6256 0-2.4385 0-3.5426-0.1226-7.3459-1.3136-9.1096-5.2545C1.2951 23.9702 0.7584 19.434 2.43 16.1237M11.647 16.8768c0.2062-0.2473 0.3505-0.5533 0.418-0.886 0.0674-0.3327 0.0554-0.6801-0.0346-1.0058-0.0954-0.3203-0.2566-0.6099-0.47-0.8445-0.2135-0.2346-0.473-0.4075-0.7569-0.5042-1.0255-0.1467-2.0633 0.1267-2.9292 0.771-1.2729 0.6131-2.7758 1.9615-4.1867 1.9966-3.0673 0-4.6008-7.3565-1.4569-8.4599 0.3364-0.1273 0.6997-0.1279 1.0365-18e-4 0.3368 0.1261 0.6292 0.3726 0.8344 0.7026 0.6135 1.1035 0.4294 2.3819 1.4109 3.2926 0.4579 0.4127 0.9775 0.7272 1.5336 0.9284 0.9508 0.3747 1.9409 0.6046 2.9445 0.6833M20.8946 12.743c-0.9643 0.0533-1.9302-0.0528-2.8678-0.3152-0.5706-0.144-1.1152-0.3986-1.6103-0.753-1.0735-0.8232-1.0122-2.1545-1.733-3.2054-0.2442-0.312-0.5688-0.5272-0.927-0.6153s-0.7317-0.0446-1.0667 0.1248c-3.0672 1.5063-0.9048 8.8803 2.2851 8.4599 1.4263-0.1926 2.8371-1.7514 4.0794-2.5396 0.832-0.7543 1.8669-1.1568 2.9291-1.1387 0.2992 0.0634 0.5807 0.2079 0.8209 0.4212s0.432 0.4896 0.5594 0.8052c0.1236 0.3224 0.1675 0.6774 0.127 1.0263-0.0406 0.3489-0.1641 0.6783-0.357 0.9527-0.3916 0.5937-0.9027 1.0709-1.49 1.391-0.5873 0.3202-1.2336 0.4739-1.884 0.4482-1.2096-0.2009-2.3066-0.9216-3.0672-2.0145M21.8914 26.9654c-0.9935 0.3588-2.0257 0.5594-3.0672 0.5957-0.5715 0.0271-1.1427-0.0621-1.687-0.263-1.1962-0.4729-1.4109-1.7514-2.3157-2.5221-0.2878-0.2379-0.634-0.366-0.9892-0.366s-0.7014 0.1281-0.9892 0.366c-2.5764 2.2945 1.0429 8.6524 3.9568 7.3563 1.3035-0.578 2.285-2.4522 3.2972-3.5031 0.7208-0.7706 1.4569-1.7516 2.5151-1.8917 0.2911-91e-4 0.5803 0.0572 0.8459 0.1937 0.2655 0.1365 0.5006 0.3399 0.6877 0.5948 0.181 0.2715 0.2949 0.5934 0.33 0.9322 0.035 0.3388-0.0101 0.682-0.1306 0.9942-0.2455 0.6709-0.6287 1.2646-1.1171 1.731s-1.0678 0.7917-1.6894 0.9489c-0.5929 0.0888-1.1953 0.0419-1.7721-0.1386-0.5767-0.1804-1.1161-0.4905-1.5865-0.9121M10.8341 2.2866C10.518 3.2233 10.084 4.1025 9.5459 4.8963 9.2303 5.3795 8.8468 5.8 8.4111 6.1402 7.4296 6.8408 6.5401 6.2803 5.5279 6.5781c-0.326 0.1124-0.61 0.3452-0.8072 0.6624C4.5236 7.5576 4.4244 7.941 4.439 8.3296c-0.092 3.503 5.8584 4.2033 6.7479 1.0331 0.1596-1.6089 0.0818-3.237-0.2301-4.8166-0.2182-1.0773-0.1101-2.2074 0.3067-3.2054 0.1536-0.257 0.3593-0.4677 0.5997-0.6141 0.2403-0.1464 0.5082-0.2242 0.7806-0.2266 0.27 0.0166 0.5314 0.1148 0.7577 0.2839 0.2262 0.1692 0.4092 0.4035 0.5305 0.6795 0.2645 0.6036 0.4023 1.2694 0.4023 1.9444 0 0.6749-0.1378 1.3403-0.4023 1.9439-0.5711 1.0906-1.4977 1.878-2.5764 2.1894" />
        </symbol>
        <symbol id="logo" viewBox="0 0 40 48" fill="none" xmlns:xlink="http://www.w3.org/1999/xlink">
            <rect fill="url(#pattern0_41_89)" width="40" height="48" />
            <defs>
                <pattern id="pattern0_41_89" width="1" height="1" patternContentUnits="objectBoundingBox" />
            </defs>
        </symbol>
        <symbol id="menu" viewBox="0 0 11 21" fill="none">
            <path  stroke-linecap="round" stroke-linejoin="round" d="M2.7506 13.7983c-0.4667 1.1034-0.8227 2.2493-1.0629 3.4214-0.1683 0.875-0.3011 2.319 0.4695 2.949 0.1544 0.1464 0.3455 0.2495 0.5537 0.2986 0.2081 0.0492 0.4258 0.0427 0.6305-0.0188 0.2048-0.0614 0.3893-0.1758 0.5345-0.3311s0.246-0.3459 0.2918-0.5524c0.1152-0.7526-0.1063-4.1042-0.1329-4.9705 0-0.5687 0-1.1463 0-1.75 0-3.2377-0.1151-8.6278-0.1239-11.8655-73e-4-0.0981-0.0427-0.1922-0.1021-0.2711C3.7494 0.629 3.6683 0.5687 3.5753 0.5338S3.3811 0.4907 3.2836 0.5107 3.0965 0.5778 3.0252 0.6464c-2.3029 2.7564-3.286 6.3442-1.8601 9.7393 0.2409 0.6152 0.6323 1.1617 1.1393 1.5908s1.1137 0.7272 1.7659 0.868M7.7992 9.0294c-0.1063 1.89-0.5138 3.7451-0.7795 5.6177-0.239 1.1988-0.3547 2.4183-0.3454 3.6401 0.0709 0.9363 0.4163 2.1964 1.5854 2.2051 0.3204 96e-4 0.634-0.0925 0.8857-0.2886 0.2818-0.2811 0.4755-0.6367 0.5579-1.0239 0.1408-0.5723 0.1916-1.1626 0.1506-1.7501 0-0.9363-0.2214-1.8463-0.3543-2.7651C9.234 12.792 8.8266 10.937 8.7203 9.0469M7.4626 0.8388l0 4.3753M9.0923 5.1878l0-4.3753M6.0189 0.8388l0 5.9942c23e-4 0.5864 0.2391 1.1482 0.6589 1.5629s0.9883 0.6487 1.5819 0.651c0.5936-23e-4 1.1622-0.2363 1.582-0.651s0.6565-0.9765 0.6589-1.5629V0.8388" />
        </symbol>
        <symbol id="Drinks-1" viewBox="0 0 21 33" fill="none">
            <path  stroke-linecap="round" stroke-linejoin="round" d="M17.7399 7.9207c1.2622 4.7141 1.0541 10.2416-1.6504 14.4093-0.9848 1.5248 0.0832 3.1387 0.6518 4.8413 0.3884 1.1436 1.0819 2.3507 0.6242 3.4689-0.2251 0.5106-0.6069 0.9503-1.0992 1.266-0.4924 0.3158-1.0741 0.4939-1.6748 0.5128-1.5882 0.108-3.1829 0.108-4.7711 0-6.7684-0.3812 0.1109-7.0902-1.8308-10.0762-1.6387-2.7856-2.4742-5.9083-2.4272-9.0724 0-1.7662-0.2219-4.4728 1.276-5.8325 2.1914-1.9823 6.1027-1.995 8.5853-0.9276M5.8537 16.1545c0.1387 1.5629 2.0804 1.7918 3.398 1.4233 1.3176-0.3685 2.6214-1.4106 4.1609-1.6901 0.9155-0.2046 1.8807-0.1016 2.7205 0.29 0.8398 0.3917 1.4984 1.0464 1.8565 1.8449M12.5388 20.5002 20.5 0.5M8.8634 29.8267c2.0675 0.596 4.2848 0.596 6.3523 0M5.5069 13.4099c-0.2785 0.0511-0.5619 0.0767-0.846 0.0763-1.1035 0-2.1619-0.4016-2.9422-1.1165S0.5 10.6852 0.5 9.6742c0-1.011 0.4384-1.9806 1.2187-2.6955s1.8387-1.1165 2.9422-1.1165c1.1035 0 2.1619 0.4016 2.9422 1.1165s1.2187 1.6845 1.2187 2.6955M5.923 9.0516c1.3742 0.5792 2.863 0.8948 4.3752 0.9276 1.5122 0.0327 3.0157-0.2181 4.4182-0.7371" />
        </symbol>
        <symbol id="Drinks" viewBox="0 0 27 37" fill="none">
            <path  stroke-linecap="round" stroke-linejoin="round" d="M22.9119 8.8482c1.6408 5.3035 1.3704 11.5219-2.1456 16.2106-1.2802 1.7154 0.1082 3.5309 0.8474 5.4465 0.5049 1.2865 1.4064 2.6445 0.8114 3.9024-0.2925 0.5744-0.7889 1.0691-1.4289 1.4243-0.6401 0.3552-1.3964 0.5556-2.1772 0.5769-2.0647 0.1215-4.1378 0.1215-6.2025 0-8.7989-0.4289 0.1443-7.9765-2.38-11.3358-2.1304-3.1338-3.2164-6.6468-3.1554-10.2064 0-1.987-0.2885-5.032 1.6589-6.5615 2.8488-2.23 7.9334-2.2443 11.1608-1.0435M7.4598 18.1113c0.1803 1.7583 2.7046 2.0157 4.4175 1.6012 1.7129-0.4146 3.4077-1.5869 5.4091-1.9013 1.1901-0.2302 2.4449-0.1144 3.5366 0.3263 1.0917 0.4406 1.948 1.1771 2.4135 2.0755M16.1505 23.0002 26.5 0.5M11.3724 33.4925c2.6877 0.6705 5.5703 0.6705 8.258 0M7.009 15.0236c-0.3621 0.0575-0.7305 0.0863-1.0998 0.0859-1.4346 0-2.8105-0.4518-3.8249-1.2561C1.0699 13.0492 0.5 11.9584 0.5 10.821s0.5699-2.2282 1.5843-3.0324c1.0144-0.8043 2.3903-1.2561 3.8249-1.2561s2.8104 0.4518 3.8248 1.256c1.0144 0.8042 1.5843 1.895 1.5843 3.0324M7.5499 10.1206c1.7864 0.6515 3.7219 1.0066 5.6878 1.0435 1.9658 0.0368 3.9203-0.2454 5.7436-0.8293" />
        </symbol>
        <symbol id="Desserts-1" viewBox="0 0 25 33" fill="none">
            <path  stroke-linecap="round" stroke-linejoin="round" d="M17.256 13.7c0.638-0.4478 1.3702-0.7147 2.1288-0.7758 1.2437-0.1166 2.4793 0.3053 3.4351 1.1732 0.9558 0.8678 1.5536 2.1105 1.6618 3.4546 0.0941 1.1452-0.1763 2.2908-0.7664 3.2474-0.5241 0.8093-1.1144 1.5661-1.7638 2.2613l-0.127 0.1347M7.7313 13.6998c-0.6344-0.4458-1.3622-0.7126-2.1166-0.7758-0.6161-0.0595-1.237 0.0131-1.8271 0.2138C3.1975 13.3384 2.65 13.663 2.1763 14.093s-0.8639 0.9571-1.1485 1.5506c-0.2847 0.5936-0.458 1.2421-0.51 1.9082-0.0919 1.1432 0.1737 2.2866 0.7542 3.2474 0.5474 1.0049 1.3437 1.8246 2.2991 2.3665M13.9108 7.0078c1.4058 0.2524 2.7189 0.922 3.7929 1.9342 1.0741 1.0122 1.8666 2.3273 2.2893 3.7981M4.9943 12.7661c0.4132-1.3485 1.1332-2.5629 2.0939-3.5323s2.1313-1.6627 3.4044-2.0157M10.079 9.4795 9.629 9.9791M15.2854 11.3595l-0.7055 0.7626M4.8118 16.9471 4.1185 17.7097M16.368 18.0383l-0.596 0.6443M9.9209 16.132 9.3248 16.7762M22.1218 17.3284l-0.4379 0.4733M12.147 4.4704c-0.4807 0-0.9417 0.2062-1.2817 0.5735-0.3399 0.3674-0.5308 0.8658-0.5308 1.3854 36e-4 0.1961 0.0322 0.3907 0.0851 0.5784 0.1047 0.4143 0.3333 0.7794 0.6502 1.0387 0.3168 0.2592 0.7041 0.398 1.1015 0.3944 0.4807 0 0.9417-0.2065 1.2816-0.5739s0.5309-0.8654 0.5309-1.385c66e-4-0.2639-0.0363-0.5267-0.1259-0.7723-0.0897-0.2456-0.2243-0.4689-0.3959-0.6568s-0.3765-0.3364-0.6025-0.4365c-0.2259-0.1001-0.4683-0.1497-0.7125-0.146zM12.147 4.4704c-0.1278-0.7562-0.0295-1.4833 0.2376-2.1957s0.7163-1.328 1.2951-1.7747M21.8245 23.1954c-0.1504 1.8374-0.6134 3.6329-1.3692 5.295-0.2654 0.7445-0.6643 1.425-1.1736 2.0025-0.5093 0.5776-1.1192 1.0407-1.7946 1.3629-1.5196 0.5027-2.7976 0.6442-4.6954 0.6442-1.8979 0-3.3421-0.1083-4.9388-0.6442-0.6753-0.3222-1.2852-0.7853-1.7945-1.3629-0.5094-0.5775-0.9082-1.258-1.1736-2.0025-0.9136-2.0502-1.3836-4.2981-1.3746-6.5737 0.0102-0.3125 0.0882-0.6183 0.2277-0.8923s0.3364-0.5089 0.5751-0.6856c0.364-0.1638 0.7585-0.2326 1.1517-0.2006s0.7737 0.164 1.1109 0.3849c0.6664 0.4528 1.4389 0.6901 2.2261 0.6836 1.6057-0.2366 2.372-2.3798 4.1359-2.1168 1.4597 0.2235 2.2382 1.9065 3.6493 2.1168 0.7908 46e-4 1.5666-0.2324 2.2382-0.6836 0.3335-0.2249 0.7124-0.3593 1.1043-0.3913 0.3919-0.0321 0.7852 0.0389 1.1461 0.207 0.2408 0.1744 0.4394 0.4089 0.5791 0.6834s0.2165 0.5813 0.2238 0.8945c-12e-4 0.4277-0.0192 0.8543-0.054 1.2787z" />
        </symbol>
        <symbol id="Desserts" viewBox="0 0 31 37" fill="none">
            <path  stroke-linecap="round" stroke-linejoin="round" d="M21.445 15.35c0.7975-0.5038 1.7127-0.8041 2.661-0.8728 1.5546-0.1312 3.0991 0.3435 4.2939 1.3198 1.1947 0.9764 1.9419 2.3744 2.0772 3.8866 0.1176 1.2883-0.2203 2.5771-0.9579 3.6532-0.6551 0.9105-1.393 1.7619-2.2048 2.5439l-0.1587 0.1516M9.5391 15.3498c-0.793-0.5015-1.7027-0.8017-2.6457-0.8728-0.7702-0.067-1.5463 0.0148-2.2839 0.2405-0.7376 0.2257-1.4221 0.5908-2.0141 1.0746s-1.0799 1.0767-1.4357 1.7445-0.5724 1.3973-0.6374 2.1467c-0.1149 1.2861 0.2171 2.5724 0.9427 3.6533 0.6842 1.1305 1.6796 2.0527 2.8738 2.6624M17.2635 7.8213c1.7572 0.2839 3.3987 1.0372 4.7412 2.176 1.3425 1.1387 2.3332 2.6182 2.8616 4.2729M6.1179 14.2994c0.5165-1.5171 1.4164-2.8833 2.6173-3.9739 1.2009-1.0906 2.6642-1.8705 4.2556-2.2677M12.4738 10.6019 11.9112 11.164M18.9817 12.717l-0.8819 0.8578M5.8898 19.003 5.0231 19.8609M20.335 20.2306 19.59 20.9554M12.2761 18.086 11.531 18.8107M27.5272 19.4319l-0.5474 0.5325M15.0587 4.9666c-0.6009 0-1.1771 0.232-1.602 0.6453s-0.6636 0.9741-0.6636 1.5585c45e-4 0.2207 0.0403 0.4396 0.1064 0.6507 0.1309 0.4661 0.4167 0.8769 0.8127 1.1686 0.3961 0.2916 0.8802 0.4478 1.3769 0.4437 0.6009 0 1.1772-0.2324 1.6021-0.6457s0.6636-0.9737 0.6636-1.5581c82e-4-0.2969-0.0454-0.5926-0.1574-0.8689-0.1121-0.2763-0.2805-0.5275-0.4949-0.7389-0.2145-0.2114-0.4706-0.3785-0.7531-0.4912-0.2824-0.1127-0.5854-0.1684-0.8907-0.1644zM15.0587 4.9666c-0.1597-0.8506-0.0368-1.6686 0.297-2.4701 0.3339-0.8014 0.8954-1.494 1.6189-1.9965M27.1557 26.0323c-0.188 2.0671-0.7668 4.0871-1.7116 5.9568-0.3318 0.8377-0.8303 1.6032-1.467 2.2529-0.6367 0.6498-1.399 1.1708-2.2432 1.5333-1.8996 0.5655-3.497 0.7247-5.8693 0.7247s-4.1776-0.1219-6.1734-0.7247C8.847 35.4128 8.0847 34.8918 7.448 34.242c-0.6367-0.6497-1.1352-1.4152-1.467-2.2529-1.1419-2.3064-1.7295-4.8353-1.7182-7.3953 0.0129-0.3516 0.1103-0.6956 0.2847-1.0038 0.1742-0.3083 0.4205-0.5725 0.7189-0.7713 0.4549-0.1844 0.9481-0.2617 1.4396-0.2257s0.9672 0.1844 1.3886 0.4329c0.8331 0.5095 1.7986 0.7764 2.7826 0.7692 2.0071-0.2663 2.9651-2.6773 5.1699-2.3815 1.8246 0.2515 2.7978 2.1448 4.5616 2.3815 0.9885 51e-4 1.9584-0.2615 2.7978-0.7692 0.4169-0.2529 0.8905-0.4041 1.3804-0.4401 0.4899-0.0361 0.9815 0.0438 1.4327 0.2329 0.301 0.1962 0.5492 0.4599 0.7238 0.7687 0.1746 0.3089 0.2705 0.6541 0.2797 1.0064-14e-4 0.4812-0.024 0.9611-0.0674 1.4385z" />
        </symbol>
    </defs>
</svg>